<svg version="1.1" id="Layer_1" xmlns="http://www.w3.org/2000/svg" xmlns:xlink="http://www.w3.org/1999/xlink" x="0px" y="0px"
	 width="100%" viewBox="0 0 1024 1024" enable-background="new 0 0 1024 1024" xml:space="preserve">
<path fill="#FFFFFF" opacity="1.000000" stroke="none" 
	d="
M538.000000,1025.000000 
	C358.666656,1025.000000 179.833328,1025.000000 1.000000,1025.000000 
	C1.000000,683.666687 1.000000,342.333344 1.000000,1.000000 
	C342.333344,1.000000 683.666687,1.000000 1025.000000,1.000000 
	C1025.000000,342.333344 1025.000000,683.666687 1025.000000,1025.000000 
	C862.833313,1025.000000 700.666687,1025.000000 538.000000,1025.000000 
M899.008484,837.020752 
	C898.685242,827.121033 895.656982,818.098816 890.226990,809.846069 
	C867.528625,775.348145 844.846252,740.839722 822.139404,706.347351 
	C774.525757,634.020813 726.898926,561.702942 679.290894,489.372711 
	C678.516602,488.196350 677.911926,486.908356 677.196655,485.615662 
	C684.235657,482.014343 690.982849,478.770813 697.536743,475.175049 
	C737.941162,453.007385 771.209351,423.280090 793.820312,382.679504 
	C814.094360,346.275208 821.470398,307.273804 814.632996,266.061371 
	C808.175964,227.141235 790.092773,193.796371 763.336548,165.156357 
	C731.630371,131.217728 692.903076,108.308014 649.122803,93.386757 
	C617.386047,82.570198 584.764526,76.493172 551.349182,76.251152 
	C478.696899,75.724945 406.038422,75.939308 333.382751,76.039017 
	C298.422394,76.087013 263.462982,76.684959 228.502411,76.786331 
	C212.943542,76.831444 198.420624,80.299522 185.401382,88.833679 
	C166.221313,101.406288 154.975113,118.612938 154.978531,142.285873 
	C155.013519,384.918488 155.009735,627.551086 154.967194,870.183716 
	C154.965332,880.808594 157.612198,890.618225 163.101379,899.615723 
	C177.116531,922.588440 198.021561,933.905701 224.577667,934.055054 
	C254.876740,934.225464 285.180267,933.300903 315.483459,933.128662 
	C347.641541,932.945862 379.801605,933.135620 411.960388,933.032166 
	C416.425720,933.017761 420.953003,932.601501 425.342438,931.784668 
	C458.684570,925.580383 478.780212,895.032043 469.919800,863.252014 
	C464.217316,842.798645 449.475647,830.260559 429.570770,825.616638 
	C416.835938,822.645508 403.162262,823.698608 389.886841,822.021057 
	C389.886841,761.493530 389.886841,700.965942 389.886841,639.601685 
	C391.669434,640.844116 392.616577,641.449829 393.505096,642.131775 
	C405.392181,651.255249 417.074799,660.659546 429.193481,669.463806 
	C453.287170,686.967834 479.150970,688.872253 505.263336,675.133301 
	C514.784668,670.123596 522.519287,661.697021 531.006287,654.752563 
	C534.416931,651.961731 537.658936,648.964905 541.840759,645.306824 
	C541.840759,648.301758 541.840820,650.071106 541.840820,651.840454 
	C541.840759,725.985474 541.774902,800.130737 541.963623,874.275269 
	C541.979004,880.316833 542.875427,886.649170 544.833252,892.340515 
	C552.156677,913.629395 574.812317,928.681213 599.441040,929.039124 
	C609.091431,929.179382 618.750000,928.611938 628.404907,928.606628 
	C702.383301,928.565857 776.361816,928.618225 850.340027,928.514648 
	C855.793274,928.507019 861.369019,928.064697 866.678162,926.882751 
	C914.977478,916.130432 924.148743,865.480835 899.008484,837.020752 
z"/>
<path fill="#5BCCF5" opacity="1.000000" stroke="none" 
	d="
M389.909454,822.947632 
	C403.162262,823.698608 416.835938,822.645508 429.570770,825.616638 
	C449.475647,830.260559 464.217316,842.798645 469.919800,863.252014 
	C478.780212,895.032043 458.684570,925.580383 425.342438,931.784668 
	C420.953003,932.601501 416.425720,933.017761 411.960388,933.032166 
	C379.801605,933.135620 347.641541,932.945862 315.483459,933.128662 
	C285.180267,933.300903 254.876740,934.225464 224.577667,934.055054 
	C198.021561,933.905701 177.116531,922.588440 163.101379,899.615723 
	C157.612198,890.618225 154.965332,880.808594 154.967194,870.183716 
	C155.009735,627.551086 155.013519,384.918488 154.978531,142.285873 
	C154.975113,118.612938 166.221313,101.406288 185.401382,88.833679 
	C198.420624,80.299522 212.943542,76.831444 228.502411,76.786331 
	C263.462982,76.684959 298.422394,76.087013 333.382751,76.039017 
	C406.038422,75.939308 478.696899,75.724945 551.349182,76.251152 
	C584.764526,76.493172 617.386047,82.570198 649.122803,93.386757 
	C692.903076,108.308014 731.630371,131.217728 763.336548,165.156357 
	C790.092773,193.796371 808.175964,227.141235 814.632996,266.061371 
	C821.470398,307.273804 814.094360,346.275208 793.820312,382.679504 
	C771.209351,423.280090 737.941162,453.007385 697.536743,475.175049 
	C690.982849,478.770813 684.235657,482.014343 677.196655,485.615662 
	C677.911926,486.908356 678.516602,488.196350 679.290894,489.372711 
	C726.898926,561.702942 774.525757,634.020813 822.139404,706.347351 
	C844.846252,740.839722 867.528625,775.348145 890.226990,809.846069 
	C895.656982,818.098816 898.685242,827.121033 898.719604,837.274780 
	C885.350525,824.183716 869.234375,818.178772 850.787903,818.160217 
	C791.792297,818.100708 732.796631,818.138123 673.800964,818.138123 
	C671.844849,818.138123 669.888733,818.138123 667.822144,818.138123 
	C667.822144,814.989380 667.822144,812.360291 667.822144,809.731262 
	C667.822144,715.571533 667.819031,621.411804 667.835999,527.252075 
	C667.836548,524.256592 668.180481,521.258484 668.123657,518.266174 
	C668.020691,512.837463 668.395386,507.287659 667.398438,502.009827 
	C664.858826,488.564117 656.526062,478.835693 646.120728,470.442810 
	C631.690247,458.803162 615.266113,454.743713 597.107056,456.456116 
	C580.189270,458.051544 567.023132,466.747345 554.696350,477.784241 
	C527.170593,502.429596 499.231415,526.612976 471.541260,551.075684 
	C469.495422,552.883057 468.103699,552.983398 466.013702,551.364563 
	C452.990753,541.277405 439.881805,531.301453 426.838165,521.240967 
	C407.077972,506.000000 387.966492,489.821289 367.441711,475.693787 
	C343.998901,459.557678 318.202850,459.161652 293.013519,471.589874 
	C273.074219,481.427795 263.826965,498.401031 263.886871,521.044189 
	C264.147430,619.536255 263.998749,718.029358 263.998749,816.522095 
	C263.998749,818.588379 263.998779,820.654724 263.998779,822.947632 
	C306.600128,822.947632 348.254791,822.947632 389.909454,822.947632 
M543.464294,229.914154 
	C484.080780,229.914154 424.697235,229.914154 365.451813,229.914154 
	C365.451813,273.765564 365.451813,316.794403 365.451813,359.863586 
	C366.724548,359.957153 367.550964,360.070923 368.377380,360.071045 
	C427.182678,360.079987 485.990387,360.385162 544.792053,359.922150 
	C566.656433,359.750000 586.486877,352.678101 603.361755,338.024750 
	C624.209595,319.921448 630.375732,291.550842 616.746399,268.613647 
	C600.610596,241.458130 574.780457,231.177521 543.464294,229.914154 
z"/>
<path fill="#228598" opacity="1.000000" stroke="none" 
	d="
M389.898132,822.484375 
	C348.254791,822.947632 306.600128,822.947632 263.998779,822.947632 
	C263.998779,820.654724 263.998749,818.588379 263.998749,816.522095 
	C263.998749,718.029358 264.147430,619.536255 263.886871,521.044189 
	C263.826965,498.401031 273.074219,481.427795 293.013519,471.589874 
	C318.202850,459.161652 343.998901,459.557678 367.441711,475.693787 
	C387.966492,489.821289 407.077972,506.000000 426.838165,521.240967 
	C439.881805,531.301453 452.990753,541.277405 466.013702,551.364563 
	C468.103699,552.983398 469.495422,552.883057 471.541260,551.075684 
	C499.231415,526.612976 527.170593,502.429596 554.696350,477.784241 
	C567.023132,466.747345 580.189270,458.051544 597.107056,456.456116 
	C615.266113,454.743713 631.690247,458.803162 646.120728,470.442810 
	C656.526062,478.835693 664.858826,488.564117 667.398438,502.009827 
	C668.395386,507.287659 668.020691,512.837463 668.123657,518.266174 
	C668.180481,521.258484 667.836548,524.256592 667.835999,527.252075 
	C667.819031,621.411804 667.822144,715.571533 667.822144,809.731262 
	C667.822144,812.360291 667.822144,814.989380 667.822144,818.138123 
	C669.888733,818.138123 671.844849,818.138123 673.800964,818.138123 
	C732.796631,818.138123 791.792297,818.100708 850.787903,818.160217 
	C869.234375,818.178772 885.350525,824.183716 898.695068,837.705200 
	C924.148743,865.480835 914.977478,916.130432 866.678162,926.882751 
	C861.369019,928.064697 855.793274,928.507019 850.340027,928.514648 
	C776.361816,928.618225 702.383301,928.565857 628.404907,928.606628 
	C618.750000,928.611938 609.091431,929.179382 599.441040,929.039124 
	C574.812317,928.681213 552.156677,913.629395 544.833252,892.340515 
	C542.875427,886.649170 541.979004,880.316833 541.963623,874.275269 
	C541.774902,800.130737 541.840759,725.985474 541.840820,651.840454 
	C541.840820,650.071106 541.840759,648.301758 541.840759,645.306824 
	C537.658936,648.964905 534.416931,651.961731 531.006287,654.752563 
	C522.519287,661.697021 514.784668,670.123596 505.263336,675.133301 
	C479.150970,688.872253 453.287170,686.967834 429.193481,669.463806 
	C417.074799,660.659546 405.392181,651.255249 393.505096,642.131775 
	C392.616577,641.449829 391.669434,640.844116 389.886841,639.601685 
	C389.886841,700.965942 389.886841,761.493530 389.898132,822.484375 
z"/>
<path fill="#FFFFFF" opacity="1.000000" stroke="none" 
	d="
M543.956665,229.907257 
	C574.780457,231.177521 600.610596,241.458130 616.746399,268.613647 
	C630.375732,291.550842 624.209595,319.921448 603.361755,338.024750 
	C586.486877,352.678101 566.656433,359.750000 544.792053,359.922150 
	C485.990387,360.385162 427.182678,360.079987 368.377380,360.071045 
	C367.550964,360.070923 366.724548,359.957153 365.451813,359.863586 
	C365.451813,316.794403 365.451813,273.765564 365.451813,229.914154 
	C424.697235,229.914154 484.080780,229.914154 543.956665,229.907257 
z"/>
</svg>